<svg width="150" height="30" viewBox="0 0 150 30" fill="white" xmlns="http://www.w3.org/2000/svg">
<path d="M46.751 24.4656C50.6852 24.4656 52.7132 22.6336 52.7132 19.1199V19.0653C52.7132 16.4403 51.4153 14.8543 48.9142 14.4305V14.1571C51.0097 13.7332 52.0913 12.3114 52.0913 10.0418V9.98715C52.0913 6.92465 50.2121 5.32505 46.5753 5.32505H37.9227V7.4852C39.3828 7.4852 39.464 7.55356 39.464 8.74301V21.0477C39.464 22.2371 39.3828 22.3055 37.9227 22.3055V24.4656H46.751ZM42.8168 7.99106H45.9534C47.8461 7.99106 48.7519 8.7977 48.7519 10.534V10.6024C48.7519 12.3934 47.8461 13.241 45.9534 13.241H42.8168V7.99106ZM42.8168 15.5242H46.0886C48.1706 15.5242 49.171 16.536 49.171 18.6141V18.6824C49.171 20.7879 48.1706 21.786 46.0886 21.786H42.8168V15.5242Z" fill="white"/>
<path d="M60.3518 24.4656V22.3055C58.9052 22.3055 58.8105 22.2371 58.8105 21.0477V5.32505H55.8633C55.7281 6.5145 55.5118 6.69223 53.984 6.69223V8.85239C55.4306 8.85239 55.5253 8.92074 55.5253 10.1102V21.0477C55.5253 22.2371 55.4306 22.3055 53.984 22.3055V24.4656H60.3518Z" fill="white"/>
<path d="M67.8552 24.8074C71.7624 24.8074 73.9525 22.0184 73.9525 17.4383V17.1375C73.9525 12.5301 71.7759 9.7684 67.8552 9.7684C63.9345 9.7684 61.7578 12.5301 61.7578 17.1375V17.4383C61.7578 22.0184 63.9345 24.8074 67.8552 24.8074ZM67.8552 22.5106C66.2328 22.5106 65.1513 21.0613 65.1513 17.9305V16.6453C65.1513 13.5555 66.03 12.0516 67.8552 12.0516C69.6668 12.0516 70.5591 13.5555 70.5591 16.6453V17.9305C70.5591 21.0203 69.6668 22.5106 67.8552 22.5106Z" fill="white"/>
<path d="M81.9967 24.8074C85.4713 24.8074 87.4992 22.9344 87.8913 19.4071L84.6736 19.0516C84.4438 21.3758 83.5515 22.4969 82.0102 22.4969C80.1716 22.4969 79.2928 20.9793 79.2928 17.7801V16.6317C79.2928 13.5282 80.2662 12.0516 82.2265 12.0516C83.5515 12.0516 84.3762 12.7352 84.3762 13.6239C84.3762 14.4852 83.5785 14.6492 83.5785 15.5789C83.5785 16.4949 84.2815 16.9324 85.3361 16.9324C86.8503 16.9324 87.6344 16.0164 87.6344 14.3348C87.6344 11.5457 85.5118 9.7684 82.1319 9.7684C78.1301 9.7684 75.8994 12.3114 75.8994 17.1785V17.2332C75.8994 22.2098 77.9679 24.8074 81.9967 24.8074Z" fill="white"/>
<path d="M95.4082 24.4656V22.3055C94.1373 22.3055 94.0697 22.2371 94.0697 21.0887V19.2567L95.8949 17.5887L98.1256 21.2801C98.6123 22.1961 98.4771 22.3055 97.0711 22.3055V24.4656H102.614V22.3055C101.627 22.3055 101.56 22.2781 100.897 21.0613L98.0716 15.5789L100.316 13.3778C101.357 12.4071 101.641 12.2703 102.533 12.2703V10.1102H96.2735V12.202C98.3014 12.2703 98.3284 12.6121 96.7872 14.1297L93.867 17.0008L93.6371 16.8778C93.9481 15.5379 94.0697 14.5399 94.0697 12.8446V5.32505H91.1225C90.9873 6.5145 90.771 6.69223 89.2432 6.69223V8.85239C90.6898 8.85239 90.7845 8.92074 90.7845 10.1102V21.0477C90.7845 22.2371 90.6898 22.3055 89.2432 22.3055V24.4656H95.4082Z" fill="white"/>
<path d="M110.861 24.4793V22.3192C108.306 22.3192 108.13 22.2508 108.13 21.0613V16.8778C108.13 14.6629 109.117 13.077 110.077 13.077C110.983 13.077 110.645 14.8817 111.943 14.8817C112.889 14.8817 113.416 13.9383 113.416 12.4618C113.416 10.8895 112.794 10.0008 111.578 10.0008C110.023 10.0008 108.657 11.3133 107.535 14.075L107.251 13.9657C107.738 12.325 107.968 11.1082 108.008 10.1102H105.183C105.048 11.2996 104.831 11.4774 103.304 11.4774V13.6375C104.75 13.6375 104.845 13.7059 104.845 14.8953V21.0613C104.845 22.2508 104.75 22.3192 103.304 22.3192V24.4793H110.861Z" fill="white"/>
<path d="M117.432 8.40121C118.824 8.40121 119.622 7.77231 119.622 6.69223C119.622 5.62583 118.824 4.98325 117.432 4.98325C116.039 4.98325 115.241 5.62583 115.241 6.69223C115.241 7.77231 116.039 8.40121 117.432 8.40121ZM120.622 24.4656V22.3055C119.176 22.3055 119.081 22.2371 119.081 21.0477V10.1102H116.134C115.999 11.2996 115.782 11.4774 114.255 11.4774V13.6375C115.701 13.6375 115.796 13.7059 115.796 14.8953V21.0477C115.796 22.2371 115.701 22.3055 114.255 22.3055V24.4656H120.622Z" fill="white"/>
<path d="M126.855 24.7117C129.045 24.7117 130.451 23.3445 131.222 20.9246L131.506 21.034C131.059 22.6063 130.83 23.7547 130.816 24.4656H135.629V22.3055C134.183 22.3055 134.088 22.2371 134.088 21.0477V5.32505H131.141C131.019 6.5145 130.803 6.69223 129.261 6.69223V8.53793C130.735 8.53793 130.816 8.59262 130.843 9.19418L130.884 10.0555C130.924 11.0536 131.087 12.1473 131.506 13.5418L131.222 13.6512C130.465 11.327 129.059 9.8641 126.801 9.8641C123.799 9.8641 122.028 12.5164 122.028 16.9871V17.5887C122.028 22.0594 123.813 24.7117 126.855 24.7117ZM127.963 22.4695C126.206 22.4695 125.354 20.9656 125.354 17.8211V16.7684C125.354 13.6102 126.206 12.0926 127.95 12.0926C129.802 12.0926 130.803 13.7743 130.803 16.9051V17.6844C130.803 20.8016 129.802 22.4695 127.963 22.4695Z" fill="white"/>
<path d="M143.2 22.5106C141.28 22.5106 140.293 21.0477 140.293 17.9989V17.8211H148.892C148.973 17.3699 149 16.9188 149 16.3992C149 12.161 146.959 9.78207 143.2 9.78207C139.198 9.78207 137.035 12.4344 137.035 17.2742V17.3289C137.035 22.1414 139.171 24.7938 143.119 24.7938C146.391 24.7938 148.473 23.0438 148.946 19.9813L145.931 19.6121C145.661 21.6082 144.741 22.5106 143.2 22.5106ZM143.268 12.0516C144.89 12.0516 145.728 13.0907 145.728 15.0731V15.0867C145.728 15.6063 145.485 15.8524 144.904 15.8524H140.32C140.483 13.3231 141.456 12.0516 143.268 12.0516Z" fill="white"/>
<path d="M22.4251 8.33337C22.4251 7.96519 22.7203 7.66672 23.0844 7.66672H28.0286C28.3927 7.66672 28.6879 7.96519 28.6879 8.33337V13.3333C28.6879 13.7015 28.3927 14 28.0286 14H23.0844C22.7203 14 22.4251 13.7015 22.4251 13.3333V8.33337Z" fill="white"/>
<path d="M15.833 1.66666C15.833 1.29847 16.1282 1 16.4923 1H21.4365C21.8006 1 22.0958 1.29847 22.0958 1.66666V6.66659C22.0958 7.03477 21.8006 7.33325 21.4365 7.33325H16.4923C16.1282 7.33325 15.833 7.03477 15.833 6.66659V1.66666Z" fill="white"/>
<path d="M23.4144 7.66695C22.92 7.66695 22.0958 7.33325 22.0958 6.66659L21.4365 7.33325C22.0958 7.33325 22.4255 8.16695 22.4255 8.66694L23.4144 7.66695Z" fill="white"/>
<path d="M7.26273 8.33337C7.26273 7.96519 6.96759 7.66672 6.6035 7.66672H1.65923C1.29515 7.66672 1 7.96519 1 8.33337V13.3333C1 13.7015 1.29515 14 1.65923 14H6.6035C6.96759 14 7.26273 13.7015 7.26273 13.3333V8.33337Z" fill="white"/>
<path d="M13.8558 1.66666C13.8558 1.29847 13.5606 1 13.1965 1H8.25225C7.88817 1 7.59302 1.29847 7.59302 1.66666V6.66659C7.59302 7.03477 7.88817 7.33325 8.25225 7.33325H13.1965C13.5606 7.33325 13.8558 7.03477 13.8558 6.66659V1.66666Z" fill="white"/>
<path d="M6.27386 7.66695C6.76829 7.66695 7.59302 7.33325 7.59302 6.66659L8.25225 7.33325C7.59302 7.33325 7.26271 8.16695 7.26271 8.66694L6.27386 7.66695Z" fill="white"/>
<path d="M7.26273 21.6664C7.26273 22.0346 6.96759 22.333 6.6035 22.333H1.65923C1.29515 22.333 1 22.0346 1 21.6664V16.6664C1 16.2983 1.29515 15.9998 1.65923 15.9998H6.6035C6.96759 15.9998 7.26273 16.2983 7.26273 16.6664V21.6664Z" fill="white"/>
<path d="M13.8558 28.3329C13.8558 28.7011 13.5606 28.9995 13.1965 28.9995H8.25225C7.88817 28.9995 7.59302 28.7011 7.59302 28.3329V23.3329C7.59302 22.9648 7.88817 22.6663 8.25225 22.6663H13.1965C13.5606 22.6663 13.8558 22.9648 13.8558 23.3329V28.3329Z" fill="white"/>
<path d="M6.27386 22.333C6.76829 22.333 7.59302 22.6663 7.59302 23.3329L8.25225 22.6663C7.59302 22.6663 7.26271 21.833 7.26271 21.333L6.27386 22.333Z" fill="white"/>
<path d="M22.0956 23.3334C22.0956 22.9652 21.8005 22.6668 21.4364 22.6668H16.4921C16.1281 22.6668 15.8329 22.9652 15.8329 23.3334V28.3333C15.8329 28.7015 16.1281 29 16.4921 29H21.4364C21.8005 29 22.0956 28.7015 22.0956 28.3333V23.3334Z" fill="white"/>
<path d="M28.6883 16.6664C28.6883 16.2982 28.3931 15.9998 28.029 15.9998H23.0848C22.7207 15.9998 22.4255 16.2982 22.4255 16.6664V21.6663C22.4255 22.0345 22.7207 22.333 23.0848 22.333H28.029C28.3931 22.333 28.6883 22.0345 28.6883 21.6663V16.6664Z" fill="white"/>
<path d="M21.1068 22.6666C21.6012 22.6666 22.4255 22.333 22.4255 21.6663L23.0848 22.333C22.4255 22.333 22.0956 23.1666 22.0956 23.6665L21.1068 22.6666Z" fill="white"/>
<path d="M22.0958 6.66659V1.66666C22.0958 1.29847 21.8006 1 21.4365 1H16.4923C16.1282 1 15.833 1.29847 15.833 1.66666V6.66659C15.833 7.03477 16.1282 7.33325 16.4923 7.33325H21.4365M22.0958 6.66659C22.0958 7.03477 21.8006 7.33325 21.4365 7.33325M22.0958 6.66659C22.0958 7.33325 22.92 7.66695 23.4144 7.66695L22.4255 8.66694C22.4255 8.16695 22.0958 7.33325 21.4365 7.33325M22.0958 6.66659L21.4365 7.33325M7.59302 6.66659V1.66666C7.59302 1.29847 7.88817 1 8.25225 1H13.1965C13.5606 1 13.8558 1.29847 13.8558 1.66666V6.66659C13.8558 7.03477 13.5606 7.33325 13.1965 7.33325H8.25225M7.59302 6.66659C7.59302 7.03477 7.88817 7.33325 8.25225 7.33325M7.59302 6.66659C7.59302 7.33325 6.76829 7.66695 6.27386 7.66695L7.26271 8.66694C7.26271 8.16695 7.59302 7.33325 8.25225 7.33325M7.59302 6.66659L8.25225 7.33325M7.59302 23.3329V28.3329C7.59302 28.7011 7.88817 28.9995 8.25225 28.9995H13.1965C13.5606 28.9995 13.8558 28.7011 13.8558 28.3329V23.3329C13.8558 22.9648 13.5606 22.6663 13.1965 22.6663H8.25225M7.59302 23.3329C7.59302 22.9648 7.88817 22.6663 8.25225 22.6663M7.59302 23.3329C7.59302 22.6663 6.76829 22.333 6.27386 22.333L7.26271 21.333C7.26271 21.833 7.59302 22.6663 8.25225 22.6663M7.59302 23.3329L8.25225 22.6663M22.4255 21.6663V16.6664C22.4255 16.2982 22.7207 15.9998 23.0848 15.9998H28.029C28.3931 15.9998 28.6883 16.2982 28.6883 16.6664V21.6663C28.6883 22.0345 28.3931 22.333 28.029 22.333H23.0848M22.4255 21.6663C22.4255 22.0345 22.7207 22.333 23.0848 22.333M22.4255 21.6663C22.4255 22.333 21.6012 22.6666 21.1068 22.6666L22.0956 23.6665C22.0956 23.1666 22.4255 22.333 23.0848 22.333M22.4255 21.6663L23.0848 22.333M46.751 24.4656C50.6852 24.4656 52.7132 22.6336 52.7132 19.1199V19.0653C52.7132 16.4403 51.4153 14.8543 48.9142 14.4305V14.1571C51.0097 13.7332 52.0913 12.3114 52.0913 10.0418V9.98715C52.0913 6.92465 50.2121 5.32505 46.5753 5.32505H37.9227V7.4852C39.3828 7.4852 39.464 7.55356 39.464 8.74301V21.0477C39.464 22.2371 39.3828 22.3055 37.9227 22.3055V24.4656H46.751ZM42.8168 7.99106H45.9534C47.8461 7.99106 48.7519 8.7977 48.7519 10.534V10.6024C48.7519 12.3934 47.8461 13.241 45.9534 13.241H42.8168V7.99106ZM42.8168 15.5242H46.0886C48.1706 15.5242 49.171 16.536 49.171 18.6141V18.6824C49.171 20.7879 48.1706 21.786 46.0886 21.786H42.8168V15.5242ZM60.3518 24.4656V22.3055C58.9052 22.3055 58.8105 22.2371 58.8105 21.0477V5.32505H55.8633C55.7281 6.5145 55.5118 6.69223 53.984 6.69223V8.85239C55.4306 8.85239 55.5253 8.92074 55.5253 10.1102V21.0477C55.5253 22.2371 55.4306 22.3055 53.984 22.3055V24.4656H60.3518ZM67.8552 24.8074C71.7624 24.8074 73.9525 22.0184 73.9525 17.4383V17.1375C73.9525 12.5301 71.7759 9.7684 67.8552 9.7684C63.9345 9.7684 61.7578 12.5301 61.7578 17.1375V17.4383C61.7578 22.0184 63.9345 24.8074 67.8552 24.8074ZM67.8552 22.5106C66.2328 22.5106 65.1513 21.0613 65.1513 17.9305V16.6453C65.1513 13.5555 66.03 12.0516 67.8552 12.0516C69.6668 12.0516 70.5591 13.5555 70.5591 16.6453V17.9305C70.5591 21.0203 69.6668 22.5106 67.8552 22.5106ZM81.9967 24.8074C85.4713 24.8074 87.4992 22.9344 87.8913 19.4071L84.6736 19.0516C84.4438 21.3758 83.5515 22.4969 82.0102 22.4969C80.1716 22.4969 79.2928 20.9793 79.2928 17.7801V16.6317C79.2928 13.5282 80.2662 12.0516 82.2265 12.0516C83.5515 12.0516 84.3762 12.7352 84.3762 13.6239C84.3762 14.4852 83.5785 14.6492 83.5785 15.5789C83.5785 16.4949 84.2815 16.9324 85.3361 16.9324C86.8503 16.9324 87.6344 16.0164 87.6344 14.3348C87.6344 11.5457 85.5118 9.7684 82.1319 9.7684C78.1301 9.7684 75.8994 12.3114 75.8994 17.1785V17.2332C75.8994 22.2098 77.9679 24.8074 81.9967 24.8074ZM95.4082 24.4656V22.3055C94.1373 22.3055 94.0697 22.2371 94.0697 21.0887V19.2567L95.8949 17.5887L98.1256 21.2801C98.6123 22.1961 98.4771 22.3055 97.0711 22.3055V24.4656H102.614V22.3055C101.627 22.3055 101.56 22.2781 100.897 21.0613L98.0716 15.5789L100.316 13.3778C101.357 12.4071 101.641 12.2703 102.533 12.2703V10.1102H96.2735V12.202C98.3014 12.2703 98.3284 12.6121 96.7872 14.1297L93.867 17.0008L93.6371 16.8778C93.9481 15.5379 94.0697 14.5399 94.0697 12.8446V5.32505H91.1225C90.9873 6.5145 90.771 6.69223 89.2432 6.69223V8.85239C90.6898 8.85239 90.7845 8.92074 90.7845 10.1102V21.0477C90.7845 22.2371 90.6898 22.3055 89.2432 22.3055V24.4656H95.4082ZM110.861 24.4793V22.3192C108.306 22.3192 108.13 22.2508 108.13 21.0613V16.8778C108.13 14.6629 109.117 13.077 110.077 13.077C110.983 13.077 110.645 14.8817 111.943 14.8817C112.889 14.8817 113.416 13.9383 113.416 12.4618C113.416 10.8895 112.794 10.0008 111.578 10.0008C110.023 10.0008 108.657 11.3133 107.535 14.075L107.251 13.9657C107.738 12.325 107.968 11.1082 108.008 10.1102H105.183C105.048 11.2996 104.831 11.4774 103.304 11.4774V13.6375C104.75 13.6375 104.845 13.7059 104.845 14.8953V21.0613C104.845 22.2508 104.75 22.3192 103.304 22.3192V24.4793H110.861ZM117.432 8.40121C118.824 8.40121 119.622 7.77231 119.622 6.69223C119.622 5.62583 118.824 4.98325 117.432 4.98325C116.039 4.98325 115.241 5.62583 115.241 6.69223C115.241 7.77231 116.039 8.40121 117.432 8.40121ZM120.622 24.4656V22.3055C119.176 22.3055 119.081 22.2371 119.081 21.0477V10.1102H116.134C115.999 11.2996 115.782 11.4774 114.255 11.4774V13.6375C115.701 13.6375 115.796 13.7059 115.796 14.8953V21.0477C115.796 22.2371 115.701 22.3055 114.255 22.3055V24.4656H120.622ZM126.855 24.7117C129.045 24.7117 130.451 23.3445 131.222 20.9246L131.506 21.034C131.059 22.6063 130.83 23.7547 130.816 24.4656H135.629V22.3055C134.183 22.3055 134.088 22.2371 134.088 21.0477V5.32505H131.141C131.019 6.5145 130.803 6.69223 129.261 6.69223V8.53793C130.735 8.53793 130.816 8.59262 130.843 9.19418L130.884 10.0555C130.924 11.0536 131.087 12.1473 131.506 13.5418L131.222 13.6512C130.465 11.327 129.059 9.8641 126.801 9.8641C123.799 9.8641 122.028 12.5164 122.028 16.9871V17.5887C122.028 22.0594 123.813 24.7117 126.855 24.7117ZM127.963 22.4695C126.206 22.4695 125.354 20.9656 125.354 17.8211V16.7684C125.354 13.6102 126.206 12.0926 127.95 12.0926C129.802 12.0926 130.803 13.7743 130.803 16.9051V17.6844C130.803 20.8016 129.802 22.4695 127.963 22.4695ZM143.2 22.5106C141.28 22.5106 140.293 21.0477 140.293 17.9989V17.8211H148.892C148.973 17.3699 149 16.9188 149 16.3992C149 12.161 146.959 9.78207 143.2 9.78207C139.198 9.78207 137.035 12.4344 137.035 17.2742V17.3289C137.035 22.1414 139.171 24.7938 143.119 24.7938C146.391 24.7938 148.473 23.0438 148.946 19.9813L145.931 19.6121C145.661 21.6082 144.741 22.5106 143.2 22.5106ZM143.268 12.0516C144.89 12.0516 145.728 13.0907 145.728 15.0731V15.0867C145.728 15.6063 145.485 15.8524 144.904 15.8524H140.32C140.483 13.3231 141.456 12.0516 143.268 12.0516ZM23.0844 14H28.0286C28.3927 14 28.6879 13.7015 28.6879 13.3333V8.33337C28.6879 7.96519 28.3927 7.66672 28.0286 7.66672H23.0844C22.7203 7.66672 22.4251 7.96519 22.4251 8.33337V13.3333C22.4251 13.7015 22.7203 14 23.0844 14ZM6.6035 14H1.65923C1.29515 14 1 13.7015 1 13.3333V8.33337C1 7.96519 1.29515 7.66672 1.65923 7.66672H6.6035C6.96759 7.66672 7.26273 7.96519 7.26273 8.33337V13.3333C7.26273 13.7015 6.96759 14 6.6035 14ZM6.6035 15.9998H1.65923C1.29515 15.9998 1 16.2983 1 16.6664V21.6664C1 22.0346 1.29515 22.333 1.65923 22.333H6.6035C6.96759 22.333 7.26273 22.0346 7.26273 21.6664V16.6664C7.26273 16.2983 6.96759 15.9998 6.6035 15.9998ZM21.4364 29H16.4921C16.1281 29 15.8329 28.7015 15.8329 28.3333V23.3334C15.8329 22.9652 16.1281 22.6668 16.4921 22.6668H21.4364C21.8005 22.6668 22.0956 22.9652 22.0956 23.3334V28.3333C22.0956 28.7015 21.8005 29 21.4364 29Z" stroke="white" stroke-width="0.475889"/>
</svg>
